<svg version="1.1" id="Vrstva_1" xmlns="http://www.w3.org/2000/svg" xmlns:xlink="http://www.w3.org/1999/xlink" x="0px" y="0px"
	 viewBox="-1.000 -1.000 26.600 26.600" enable-background="new 0 0 24.6 24.6" xml:space="preserve">
<g>
	<path fill="#231F20" d="M12.3,0C5.5,0,0,5.5,0,12.3s5.5,12.3,12.3,12.3c6.8,0,12.3-5.5,12.3-12.3S19.1,0,12.3,0z M12.3,23.6
		C6.1,23.6,1,18.5,1,12.3C1,6.1,6.1,1,12.3,1c6.2,0,11.3,5.1,11.3,11.3C23.6,18.5,18.5,23.6,12.3,23.6z"/>
	<path fill="#231F20" d="M20,13.9c0-0.4,0.1-0.8,0.1-1.2c0-1-0.1-2-0.3-2.9c-0.9,0.5-2.2,0.9-3.7,1.1c0.1,0.8,0.1,1.5,0.1,2.3
		c0,0.6,0,1.2-0.1,1.8C17.6,14.9,18.9,14.5,20,13.9z M8.9,12.1c-0.1,1-0.1,2,0,2.9c1.2,0.2,2.5,0.4,3.9,0.4c0.9,0,1.7-0.1,2.5-0.1
		c0-0.5,0-1.1,0-1.6c0-0.9,0-1.7,0-2.6c-0.5,0-1.1,0.1-1.6,0.1c-1.7,0-3.2-0.2-4.5-0.6C9,11.1,9,11.6,8.9,12.1z M20.3,9.5
		c0.3,0.9,0.5,1.9,0.5,3c0,0.3,0,0.7-0.1,1c0.8-0.6,1.3-1.2,1.4-1.9c-0.1-1.3-0.4-2.5-1-3.6c0,0,0,0,0,0.1
		C21.2,8.6,20.9,9.1,20.3,9.5z M15.1,6.3c0.3,1.1,0.6,2.4,0.7,3.8c1.4-0.3,2.7-0.8,3.5-1.4c-0.4-1.1-0.9-2.1-1.4-3
		c0.7,0.7,1.3,1.7,1.8,2.7c0.5-0.5,0.7-1,0.7-1.5v0c-0.8-1.1-1.7-2-2.8-2.7c0.1,0.2,0.2,0.4,0.2,0.5C17.8,5.3,16.7,6,15.1,6.3z
		 M15.1,20.5c-0.1,0.3-0.2,0.5-0.3,0.7c0-0.2,0.1-0.5,0.1-0.7c-1.9-0.1-3.5-0.5-4.5-1.2c1.1,0.4,2.4,0.6,3.9,0.6c0.2,0,0.4,0,0.6,0
		c0.1-1.1,0.2-2.4,0.3-3.6c-0.3,0-0.5,0-0.8,0c-2.1,0-4-0.3-5.5-0.8c0.1,0.9,0.3,1.8,0.5,2.6c-0.4-0.8-0.8-1.8-1-2.8
		C8,15,7.6,14.8,7.2,14.6c0.4,0.1,0.8,0.2,1.2,0.3c-0.2-1-0.2-2-0.1-3.1c0-0.5,0.1-1,0.2-1.5C8,10.1,7.6,9.9,7.2,9.7
		C7.6,9.8,8.1,9.9,8.6,10c0.4-1.5,1-2.9,1.8-4c-0.4-0.1-0.7-0.3-1-0.4c0.3,0.1,0.7,0.2,1.1,0.3c0.2-0.2,0.4-0.5,0.6-0.7
		c-0.1,0.2-0.3,0.5-0.4,0.7c0.5,0.1,1,0.1,1.5,0.1c0.9,0,1.7-0.1,2.4-0.3c-0.1-0.4-0.2-0.9-0.3-1.3c0.2,0.4,0.3,0.8,0.5,1.2
		c1.1-0.3,1.8-0.9,1.8-1.5c0-0.4-0.3-0.7-0.8-1c-1.1-0.4-2.3-0.7-3.6-0.7c-5.5,0-9.9,4.4-9.9,9.9s4.4,9.9,9.9,9.9c2.2,0,4.3-0.7,6-2
		c-0.8,0.2-1.8,0.3-2.8,0.3C15.4,20.5,15.2,20.5,15.1,20.5z M18.6,18.6c0.4-0.9,0.8-2,1.1-3.1c-1.1,0.4-2.4,0.6-3.8,0.7
		c-0.1,1.3-0.4,2.6-0.7,3.7c2.4-0.1,4.1-0.8,5.1-1.9c0.8-1.1,1.3-2.3,1.6-3.6c-0.4,0.3-1,0.6-1.6,0.9C19.9,16.5,19.3,17.7,18.6,18.6
		z M14.8,6.3c-0.5,0.1-1,0.1-1.5,0.1c-1,0-1.9-0.1-2.7-0.4C10,7.3,9.5,8.6,9.2,10.2c0.9,0.2,1.9,0.2,3,0.2c1.1,0,2.1-0.1,3-0.2
		C15.1,8.8,15,7.5,14.8,6.3z"/>
</g>
<script  type="text/javascript">
    <![CDATA[
         var c=window.location.search.split('color=')[1]; c=parseInt(c,16); if(!isNaN(c)){c=c.toString(16);var p=document.getElementsByTagName('path');for(var i=0,l=p.length;i<l;i++){var s=p[i].style;s.fill='#'+c;} var p2=document.getElementsByTagName('polygon');for(var i=0,l=p2.length;i<l;i++){var s=p2[i].style;s.fill='#'+c;} var p3=document.getElementsByTagName('circle');for(var i=0,l=p3.length;i<l;i++){var s=p3[i].style;s.fill='#'+c;} }
        ]]>
</script>
</svg>
